<svg width="220" height="200" xmlns="http://www.w3.org/2000/svg">
  <defs>
    <linearGradient id="jacketGrad" x1="0%" y1="0%" x2="100%" y2="100%">
      <stop offset="0%" style="stop-color:#4CAF50;stop-opacity:1" />
      <stop offset="100%" style="stop-color:#2E7D32;stop-opacity:1" />
    </linearGradient>
  </defs>
  <path d="M30 70 L30 40 L50 30 L80 35 L100 30 L120 35 L150 30 L170 40 L170 70 L160 75 L160 180 L40 180 L40 75 Z" fill="url(#jacketGrad)" stroke="#1B5E20" stroke-width="2"/>
  <path d="M50 30 L80 45 L120 45 L150 30" fill="none" stroke="#1B5E20" stroke-width="2"/>
  <path d="M20 80 L30 70 L30 130 L20 140 Z" fill="url(#jacketGrad)" stroke="#1B5E20" stroke-width="1"/>
  <path d="M180 80 L170 70 L170 130 L180 140 Z" fill="url(#jacketGrad)" stroke="#1B5E20" stroke-width="1"/>
  <circle cx="60" cy="100" r="4" fill="#2E7D32"/>
  <circle cx="60" cy="130" r="4" fill="#2E7D32"/>
  <circle cx="60" cy="160" r="4" fill="#2E7D32"/>
</svg>
